<svg xmlns="http://www.w3.org/2000/svg" xmlns:xlink="http://www.w3.org/1999/xlink" viewBox="85 85 130 130" preserveAspectRatio="xMidYMid meet" version="1.0"><defs><clipPath id="85d849e15f"><path d="M 101.738281 108.773438 L 195 108.773438 L 195 202 L 101.738281 202 Z M 101.738281 108.773438 " clip-rule="nonzero"/></clipPath><clipPath id="e2893488da"><path d="M 198 189 L 198.488281 189 L 198.488281 202 L 198 202 Z M 198 189 " clip-rule="nonzero"/></clipPath></defs><g clip-path="url(#85d849e15f)"><path fill="currentColor" d="M 180.414062 187.664062 L 166.730469 187.664062 L 166.730469 166.238281 C 166.730469 161.128906 166.640625 154.554688 159.617188 154.554688 C 152.589844 154.554688 151.398438 160.121094 151.398438 165.867188 L 151.398438 187.664062 L 137.714844 187.664062 L 137.714844 143.601562 L 150.851562 143.601562 L 150.851562 149.625 L 151.035156 149.625 C 153.710938 145.046875 158.695312 142.308594 163.996094 142.511719 C 177.859375 142.511719 180.421875 151.632812 180.421875 163.496094 L 180.421875 187.667969 Z M 122.28125 137.578125 C 117.894531 137.578125 114.34375 134.027344 114.339844 129.640625 C 114.335938 125.253906 117.890625 121.703125 122.277344 121.699219 C 126.664062 121.699219 130.214844 125.25 130.222656 129.636719 C 130.226562 134.023438 126.667969 137.574219 122.28125 137.578125 M 129.125 187.664062 L 115.425781 187.664062 L 115.425781 143.601562 L 129.125 143.601562 Z M 187.234375 108.992188 L 108.554688 108.992188 C 104.835938 108.953125 101.78125 111.929688 101.738281 115.652344 L 101.738281 194.664062 C 101.78125 198.386719 104.835938 201.367188 108.554688 201.328125 L 187.238281 201.328125 C 190.96875 201.375 194.03125 198.394531 194.082031 194.664062 L 194.082031 115.644531 C 194.023438 111.917969 190.964844 108.941406 187.234375 108.988281 " fill-opacity="1" fill-rule="nonzero"/></g><g clip-path="url(#e2893488da)"><path fill="currentColor" d="M 204.589844 189.382812 C 201.109375 189.417969 198.320312 192.265625 198.351562 195.742188 C 198.386719 199.21875 201.234375 202.011719 204.710938 201.980469 C 208.1875 201.945312 210.976562 199.097656 210.945312 195.621094 C 210.914062 192.191406 208.140625 189.417969 204.710938 189.382812 L 204.589844 189.382812 M 204.589844 201.257812 C 201.539062 201.308594 199.027344 198.875 198.972656 195.832031 C 198.921875 192.785156 201.355469 190.269531 204.402344 190.214844 C 207.453125 190.164062 209.964844 192.597656 210.015625 195.644531 L 210.015625 195.734375 C 210.082031 198.714844 207.714844 201.1875 204.730469 201.253906 L 204.589844 201.253906 " fill-opacity="1" fill-rule="nonzero"/></g></svg>